<svg width="30" height="31" viewBox="0 0 30 31" fill="none" xmlns="http://www.w3.org/2000/svg">
<path d="M11.77 8.87676C13.2109 6.62958 14.0641 4.55395 14.5084 3.08583C14.6791 2.52333 15.3991 2.29364 15.8266 2.69676C22.27 8.7727 24.3766 13.4124 24.7956 18.773C25.1031 23.9583 22.555 28.5727 15.7141 28.5727C9.29219 28.5727 4.55125 24.0905 5.19531 16.9852C5.58156 12.7402 7.2325 9.50489 8.55156 7.57926C8.96219 6.9802 9.81812 6.97176 10.2916 7.52301L11.4719 8.89739C11.5534 8.99208 11.7025 8.98176 11.77 8.87676Z" fill="url(#paint0_radial_48_16055)"/>
<path d="M11.77 8.87676C13.2109 6.62958 14.0641 4.55395 14.5084 3.08583C14.6791 2.52333 15.3991 2.29364 15.8266 2.69676C22.27 8.7727 24.3766 13.4124 24.7956 18.773C25.1031 23.9583 22.555 28.5727 15.7141 28.5727C9.29219 28.5727 4.55125 24.0905 5.19531 16.9852C5.58156 12.7402 7.2325 9.50489 8.55156 7.57926C8.96219 6.9802 9.81812 6.97176 10.2916 7.52301L11.4719 8.89739C11.5534 8.99208 11.7025 8.98176 11.77 8.87676Z" fill="url(#paint1_radial_48_16055)"/>
<path d="M11.77 8.87676C13.2109 6.62958 14.0641 4.55395 14.5084 3.08583C14.6791 2.52333 15.3991 2.29364 15.8266 2.69676C22.27 8.7727 24.3766 13.4124 24.7956 18.773C25.1031 23.9583 22.555 28.5727 15.7141 28.5727C9.29219 28.5727 4.55125 24.0905 5.19531 16.9852C5.58156 12.7402 7.2325 9.50489 8.55156 7.57926C8.96219 6.9802 9.81812 6.97176 10.2916 7.52301L11.4719 8.89739C11.5534 8.99208 11.7025 8.98176 11.77 8.87676Z" fill="url(#paint2_linear_48_16055)"/>
<path d="M11.77 8.87676C13.2109 6.62958 14.0641 4.55395 14.5084 3.08583C14.6791 2.52333 15.3991 2.29364 15.8266 2.69676C22.27 8.7727 24.3766 13.4124 24.7956 18.773C25.1031 23.9583 22.555 28.5727 15.7141 28.5727C9.29219 28.5727 4.55125 24.0905 5.19531 16.9852C5.58156 12.7402 7.2325 9.50489 8.55156 7.57926C8.96219 6.9802 9.81812 6.97176 10.2916 7.52301L11.4719 8.89739C11.5534 8.99208 11.7025 8.98176 11.77 8.87676Z" fill="url(#paint3_radial_48_16055)"/>
<path d="M11.77 8.87676C13.2109 6.62958 14.0641 4.55395 14.5084 3.08583C14.6791 2.52333 15.3991 2.29364 15.8266 2.69676C22.27 8.7727 24.3766 13.4124 24.7956 18.773C25.1031 23.9583 22.555 28.5727 15.7141 28.5727C9.29219 28.5727 4.55125 24.0905 5.19531 16.9852C5.58156 12.7402 7.2325 9.50489 8.55156 7.57926C8.96219 6.9802 9.81812 6.97176 10.2916 7.52301L11.4719 8.89739C11.5534 8.99208 11.7025 8.98176 11.77 8.87676Z" fill="url(#paint4_radial_48_16055)"/>
<path d="M11.77 8.87676C13.2109 6.62958 14.0641 4.55395 14.5084 3.08583C14.6791 2.52333 15.3991 2.29364 15.8266 2.69676C22.27 8.7727 24.3766 13.4124 24.7956 18.773C25.1031 23.9583 22.555 28.5727 15.7141 28.5727C9.29219 28.5727 4.55125 24.0905 5.19531 16.9852C5.58156 12.7402 7.2325 9.50489 8.55156 7.57926C8.96219 6.9802 9.81812 6.97176 10.2916 7.52301L11.4719 8.89739C11.5534 8.99208 11.7025 8.98176 11.77 8.87676Z" fill="url(#paint5_radial_48_16055)"/>
<path d="M11.77 8.87676C13.2109 6.62958 14.0641 4.55395 14.5084 3.08583C14.6791 2.52333 15.3991 2.29364 15.8266 2.69676C22.27 8.7727 24.3766 13.4124 24.7956 18.773C25.1031 23.9583 22.555 28.5727 15.7141 28.5727C9.29219 28.5727 4.55125 24.0905 5.19531 16.9852C5.58156 12.7402 7.2325 9.50489 8.55156 7.57926C8.96219 6.9802 9.81812 6.97176 10.2916 7.52301L11.4719 8.89739C11.5534 8.99208 11.7025 8.98176 11.77 8.87676Z" fill="url(#paint6_radial_48_16055)"/>
<path d="M11.77 8.87676C13.2109 6.62958 14.0641 4.55395 14.5084 3.08583C14.6791 2.52333 15.3991 2.29364 15.8266 2.69676C22.27 8.7727 24.3766 13.4124 24.7956 18.773C25.1031 23.9583 22.555 28.5727 15.7141 28.5727C9.29219 28.5727 4.55125 24.0905 5.19531 16.9852C5.58156 12.7402 7.2325 9.50489 8.55156 7.57926C8.96219 6.9802 9.81812 6.97176 10.2916 7.52301L11.4719 8.89739C11.5534 8.99208 11.7025 8.98176 11.77 8.87676Z" fill="url(#paint7_radial_48_16055)"/>
<g filter="url(#filter0_i_48_16055)">
<path d="M9.54164 19.1347C10.7623 16.2284 13.2682 13.0137 14.9604 11.269C15.1899 11.0343 15.5024 10.899 15.8306 10.8923C16.1588 10.8857 16.4766 11.0082 16.7154 11.2334C19.9601 14.2231 20.9369 16.9259 21.7657 20.0722C22.6282 23.3459 21.7657 28.6203 15.2773 28.6203C9.68976 28.6203 7.75289 23.3909 9.54164 19.1347Z" fill="url(#paint8_radial_48_16055)"/>
<path d="M9.54164 19.1347C10.7623 16.2284 13.2682 13.0137 14.9604 11.269C15.1899 11.0343 15.5024 10.899 15.8306 10.8923C16.1588 10.8857 16.4766 11.0082 16.7154 11.2334C19.9601 14.2231 20.9369 16.9259 21.7657 20.0722C22.6282 23.3459 21.7657 28.6203 15.2773 28.6203C9.68976 28.6203 7.75289 23.3909 9.54164 19.1347Z" fill="url(#paint9_radial_48_16055)"/>
<path d="M9.54164 19.1347C10.7623 16.2284 13.2682 13.0137 14.9604 11.269C15.1899 11.0343 15.5024 10.899 15.8306 10.8923C16.1588 10.8857 16.4766 11.0082 16.7154 11.2334C19.9601 14.2231 20.9369 16.9259 21.7657 20.0722C22.6282 23.3459 21.7657 28.6203 15.2773 28.6203C9.68976 28.6203 7.75289 23.3909 9.54164 19.1347Z" fill="url(#paint10_radial_48_16055)"/>
</g>
<path d="M9.54164 19.1347C10.7623 16.2284 13.2682 13.0137 14.9604 11.269C15.1899 11.0343 15.5024 10.899 15.8306 10.8923C16.1588 10.8857 16.4766 11.0082 16.7154 11.2334C19.9601 14.2231 20.9369 16.9259 21.7657 20.0722C22.6282 23.3459 21.7657 28.6203 15.2773 28.6203C9.68976 28.6203 7.75289 23.3909 9.54164 19.1347Z" fill="url(#paint11_linear_48_16055)"/>
<path d="M9.54164 19.1347C10.7623 16.2284 13.2682 13.0137 14.9604 11.269C15.1899 11.0343 15.5024 10.899 15.8306 10.8923C16.1588 10.8857 16.4766 11.0082 16.7154 11.2334C19.9601 14.2231 20.9369 16.9259 21.7657 20.0722C22.6282 23.3459 21.7657 28.6203 15.2773 28.6203C9.68976 28.6203 7.75289 23.3909 9.54164 19.1347Z" fill="url(#paint12_radial_48_16055)"/>
<g filter="url(#filter1_f_48_16055)">
<path d="M11.0754 11.3179C13.2458 8.13977 14.5161 4.70102 14.9033 3.85352C14.3379 8.19789 12.6908 11.3798 9.5895 15.4766C7.10888 18.7541 6.66075 21.5591 6.68231 22.2426C5.907 17.0282 8.36138 15.2901 11.0754 11.3179Z" fill="url(#paint13_linear_48_16055)"/>
</g>
<g filter="url(#filter2_f_48_16055)">
<path d="M9.20051 7.88184C7.98176 9.39496 5.55926 13.5912 5.61926 18.2731C6.81926 13.4712 9.62707 11.9581 9.20051 7.88184Z" fill="url(#paint14_linear_48_16055)"/>
</g>
<defs>
<filter id="filter0_i_48_16055" x="8.89648" y="10.8921" width="13.5859" height="17.728" filterUnits="userSpaceOnUse" color-interpolation-filters="sRGB">
<feFlood flood-opacity="0" result="BackgroundImageFix"/>
<feBlend mode="normal" in="SourceGraphic" in2="BackgroundImageFix" result="shape"/>
<feColorMatrix in="SourceAlpha" type="matrix" values="0 0 0 0 0 0 0 0 0 0 0 0 0 0 0 0 0 0 127 0" result="hardAlpha"/>
<feOffset dx="0.4375"/>
<feGaussianBlur stdDeviation="0.21875"/>
<feComposite in2="hardAlpha" operator="arithmetic" k2="-1" k3="1"/>
<feColorMatrix type="matrix" values="0 0 0 0 0.952941 0 0 0 0 0.615686 0 0 0 0 0.364706 0 0 0 1 0"/>
<feBlend mode="normal" in2="shape" result="effect1_innerShadow_48_16055"/>
</filter>
<filter id="filter1_f_48_16055" x="5.44336" y="2.75977" width="10.5537" height="20.5767" filterUnits="userSpaceOnUse" color-interpolation-filters="sRGB">
<feFlood flood-opacity="0" result="BackgroundImageFix"/>
<feBlend mode="normal" in="SourceGraphic" in2="BackgroundImageFix" result="shape"/>
<feGaussianBlur stdDeviation="0.546875" result="effect1_foregroundBlur_48_16055"/>
</filter>
<filter id="filter2_f_48_16055" x="4.30566" y="6.56934" width="6.25098" height="13.0161" filterUnits="userSpaceOnUse" color-interpolation-filters="sRGB">
<feFlood flood-opacity="0" result="BackgroundImageFix"/>
<feBlend mode="normal" in="SourceGraphic" in2="BackgroundImageFix" result="shape"/>
<feGaussianBlur stdDeviation="0.65625" result="effect1_foregroundBlur_48_16055"/>
</filter>
<radialGradient id="paint0_radial_48_16055" cx="0" cy="0" r="1" gradientUnits="userSpaceOnUse" gradientTransform="translate(22.5011 18.9879) rotate(-179.474) scale(16.0301 24.1745)">
<stop stop-color="#FF953D"/>
<stop offset="1" stop-color="#FF5141"/>
</radialGradient>
<radialGradient id="paint1_radial_48_16055" cx="0" cy="0" r="1" gradientUnits="userSpaceOnUse" gradientTransform="translate(9.72364 15.1759) rotate(-157.937) scale(9.69759 16.7339)">
<stop stop-color="#CE5327"/>
<stop offset="1" stop-color="#CE5327" stop-opacity="0"/>
</radialGradient>
<linearGradient id="paint2_linear_48_16055" x1="17.1897" y1="28.5727" x2="17.1897" y2="23.7933" gradientUnits="userSpaceOnUse">
<stop stop-color="#FF7583"/>
<stop offset="1" stop-color="#FF7583" stop-opacity="0"/>
</linearGradient>
<radialGradient id="paint3_radial_48_16055" cx="0" cy="0" r="1" gradientUnits="userSpaceOnUse" gradientTransform="translate(4.64738 13.9923) rotate(24.015) scale(2.91061 24.0929)">
<stop stop-color="#FFAA7B"/>
<stop offset="1" stop-color="#FFAA7B" stop-opacity="0"/>
</radialGradient>
<radialGradient id="paint4_radial_48_16055" cx="0" cy="0" r="1" gradientUnits="userSpaceOnUse" gradientTransform="translate(8.72781 6.35958) rotate(77.3197) scale(3.60032 4.49238)">
<stop stop-color="#FF5E47"/>
<stop offset="1" stop-color="#FF5E47" stop-opacity="0"/>
</radialGradient>
<radialGradient id="paint5_radial_48_16055" cx="0" cy="0" r="1" gradientUnits="userSpaceOnUse" gradientTransform="translate(15.4019 1.78082) rotate(87.8819) scale(9.50381 8.79676)">
<stop stop-color="#FF2F3C"/>
<stop offset="1" stop-color="#FF2F3C" stop-opacity="0"/>
</radialGradient>
<radialGradient id="paint6_radial_48_16055" cx="0" cy="0" r="1" gradientUnits="userSpaceOnUse" gradientTransform="translate(13.0309 5.0002) rotate(25.3283) scale(2.15526 4.32517)">
<stop stop-color="#FF846C"/>
<stop offset="1" stop-color="#FF846C" stop-opacity="0"/>
</radialGradient>
<radialGradient id="paint7_radial_48_16055" cx="0" cy="0" r="1" gradientUnits="userSpaceOnUse" gradientTransform="translate(11.6791 8.19708) rotate(113.224) scale(2.13597 0.489474)">
<stop stop-color="#FFA682"/>
<stop offset="1" stop-color="#FFA682" stop-opacity="0"/>
</radialGradient>
<radialGradient id="paint8_radial_48_16055" cx="0" cy="0" r="1" gradientUnits="userSpaceOnUse" gradientTransform="translate(19.8784 23.3527) rotate(-168.558) scale(9.40228 11.7085)">
<stop stop-color="#FFDA2F"/>
<stop offset="1" stop-color="#FF8E41"/>
</radialGradient>
<radialGradient id="paint9_radial_48_16055" cx="0" cy="0" r="1" gradientUnits="userSpaceOnUse" gradientTransform="translate(11.6248 8.55497) rotate(69.044) scale(13.2586 11.5199)">
<stop stop-color="#FD5639"/>
<stop offset="1" stop-color="#FE5533" stop-opacity="0"/>
</radialGradient>
<radialGradient id="paint10_radial_48_16055" cx="0" cy="0" r="1" gradientUnits="userSpaceOnUse" gradientTransform="translate(18.0363 19.8397) rotate(174.239) scale(9.18624 22.4919)">
<stop offset="0.628" stop-color="#D7812D" stop-opacity="0"/>
<stop offset="1" stop-color="#D7812D"/>
</radialGradient>
<linearGradient id="paint11_linear_48_16055" x1="15.4713" y1="10.4487" x2="15.4713" y2="13.8678" gradientUnits="userSpaceOnUse">
<stop stop-color="#F95131"/>
<stop offset="1" stop-color="#F95131" stop-opacity="0"/>
</linearGradient>
<radialGradient id="paint12_radial_48_16055" cx="0" cy="0" r="1" gradientUnits="userSpaceOnUse" gradientTransform="translate(21.5491 18.1278) rotate(143.063) scale(15.0512 10.8913)">
<stop offset="0.772" stop-color="#F18A52" stop-opacity="0"/>
<stop offset="1" stop-color="#F18A52"/>
</radialGradient>
<linearGradient id="paint13_linear_48_16055" x1="14.0586" y1="4.48914" x2="7.17638" y2="21.8113" gradientUnits="userSpaceOnUse">
<stop stop-color="#FF7558"/>
<stop offset="1" stop-color="#F38758"/>
</linearGradient>
<linearGradient id="paint14_linear_48_16055" x1="8.94457" y1="8.13496" x2="5.23301" y2="18.7615" gradientUnits="userSpaceOnUse">
<stop stop-color="#FF815B"/>
<stop offset="1" stop-color="#FF9C6D"/>
</linearGradient>
</defs>
</svg>
