<svg width="24" height="24" viewBox="0 0 24 24" fill="none" xmlns="http://www.w3.org/2000/svg">
<g filter="url(#filter0_i_580_3522)">
<path d="M9.46637 4.03808C9.46066 3.71057 9.52024 3.38521 9.64162 3.08097C9.763 2.77673 9.94376 2.49972 10.1734 2.26609C10.4029 2.03246 10.6768 1.8469 10.9788 1.72023C11.2809 1.59356 11.6052 1.52832 11.9327 1.52832C12.2603 1.52832 12.5846 1.59356 12.8867 1.72023C13.1887 1.8469 13.4626 2.03246 13.6921 2.26609C13.9217 2.49972 14.1025 2.77673 14.2239 3.08097C14.3453 3.38521 14.4048 3.71057 14.3991 4.03808V6.87608C14.4001 7.11808 14.3821 7.35983 14.3451 7.60133C14.3316 7.68908 14.3174 7.77758 14.3091 7.86533C14.2821 8.14283 14.3151 8.50583 14.5041 8.74958L14.0526 9.18458C15.2017 9.77313 16.1657 10.6678 16.8383 11.7697C17.5109 12.8717 17.8659 14.1381 17.8641 15.4291C17.8641 16.1678 17.7501 16.8803 17.5394 17.5486L16.7924 22.4288H10.7159V22.4266C6.96363 22.3456 3.95312 19.8991 3.95312 15.4291C3.95312 12.8018 5.21088 10.6868 7.11438 9.49433L7.10913 9.49058C7.23888 9.40058 7.39188 9.30908 7.55612 9.21083L7.55688 9.21008C8.09688 8.88683 8.75688 8.49083 9.10413 7.84433C9.40637 7.28333 9.46488 6.37358 9.46488 5.95208H9.46637V4.03808Z" fill="url(#paint0_linear_580_3522)"/>
</g>
<path d="M9.46637 4.03808C9.46066 3.71057 9.52024 3.38521 9.64162 3.08097C9.763 2.77673 9.94376 2.49972 10.1734 2.26609C10.4029 2.03246 10.6768 1.8469 10.9788 1.72023C11.2809 1.59356 11.6052 1.52832 11.9327 1.52832C12.2603 1.52832 12.5846 1.59356 12.8867 1.72023C13.1887 1.8469 13.4626 2.03246 13.6921 2.26609C13.9217 2.49972 14.1025 2.77673 14.2239 3.08097C14.3453 3.38521 14.4048 3.71057 14.3991 4.03808V6.87608C14.4001 7.11808 14.3821 7.35983 14.3451 7.60133C14.3316 7.68908 14.3174 7.77758 14.3091 7.86533C14.2821 8.14283 14.3151 8.50583 14.5041 8.74958L14.0526 9.18458C15.2017 9.77313 16.1657 10.6678 16.8383 11.7697C17.5109 12.8717 17.8659 14.1381 17.8641 15.4291C17.8641 16.1678 17.7501 16.8803 17.5394 17.5486L16.7924 22.4288H10.7159V22.4266C6.96363 22.3456 3.95312 19.8991 3.95312 15.4291C3.95312 12.8018 5.21088 10.6868 7.11438 9.49433L7.10913 9.49058C7.23888 9.40058 7.39188 9.30908 7.55612 9.21083L7.55688 9.21008C8.09688 8.88683 8.75688 8.49083 9.10413 7.84433C9.40637 7.28333 9.46488 6.37358 9.46488 5.95208H9.46637V4.03808Z" fill="url(#paint1_radial_580_3522)"/>
<path d="M9.46637 4.03808C9.46066 3.71057 9.52024 3.38521 9.64162 3.08097C9.763 2.77673 9.94376 2.49972 10.1734 2.26609C10.4029 2.03246 10.6768 1.8469 10.9788 1.72023C11.2809 1.59356 11.6052 1.52832 11.9327 1.52832C12.2603 1.52832 12.5846 1.59356 12.8867 1.72023C13.1887 1.8469 13.4626 2.03246 13.6921 2.26609C13.9217 2.49972 14.1025 2.77673 14.2239 3.08097C14.3453 3.38521 14.4048 3.71057 14.3991 4.03808V6.87608C14.4001 7.11808 14.3821 7.35983 14.3451 7.60133C14.3316 7.68908 14.3174 7.77758 14.3091 7.86533C14.2821 8.14283 14.3151 8.50583 14.5041 8.74958L14.0526 9.18458C15.2017 9.77313 16.1657 10.6678 16.8383 11.7697C17.5109 12.8717 17.8659 14.1381 17.8641 15.4291C17.8641 16.1678 17.7501 16.8803 17.5394 17.5486L16.7924 22.4288H10.7159V22.4266C6.96363 22.3456 3.95312 19.8991 3.95312 15.4291C3.95312 12.8018 5.21088 10.6868 7.11438 9.49433L7.10913 9.49058C7.23888 9.40058 7.39188 9.30908 7.55612 9.21083L7.55688 9.21008C8.09688 8.88683 8.75688 8.49083 9.10413 7.84433C9.40637 7.28333 9.46488 6.37358 9.46488 5.95208H9.46637V4.03808Z" fill="url(#paint2_radial_580_3522)"/>
<path d="M9.46637 4.03808C9.46066 3.71057 9.52024 3.38521 9.64162 3.08097C9.763 2.77673 9.94376 2.49972 10.1734 2.26609C10.4029 2.03246 10.6768 1.8469 10.9788 1.72023C11.2809 1.59356 11.6052 1.52832 11.9327 1.52832C12.2603 1.52832 12.5846 1.59356 12.8867 1.72023C13.1887 1.8469 13.4626 2.03246 13.6921 2.26609C13.9217 2.49972 14.1025 2.77673 14.2239 3.08097C14.3453 3.38521 14.4048 3.71057 14.3991 4.03808V6.87608C14.4001 7.11808 14.3821 7.35983 14.3451 7.60133C14.3316 7.68908 14.3174 7.77758 14.3091 7.86533C14.2821 8.14283 14.3151 8.50583 14.5041 8.74958L14.0526 9.18458C15.2017 9.77313 16.1657 10.6678 16.8383 11.7697C17.5109 12.8717 17.8659 14.1381 17.8641 15.4291C17.8641 16.1678 17.7501 16.8803 17.5394 17.5486L16.7924 22.4288H10.7159V22.4266C6.96363 22.3456 3.95312 19.8991 3.95312 15.4291C3.95312 12.8018 5.21088 10.6868 7.11438 9.49433L7.10913 9.49058C7.23888 9.40058 7.39188 9.30908 7.55612 9.21083L7.55688 9.21008C8.09688 8.88683 8.75688 8.49083 9.10413 7.84433C9.40637 7.28333 9.46488 6.37358 9.46488 5.95208H9.46637V4.03808Z" fill="url(#paint3_radial_580_3522)"/>
<path d="M9.46637 4.03808C9.46066 3.71057 9.52024 3.38521 9.64162 3.08097C9.763 2.77673 9.94376 2.49972 10.1734 2.26609C10.4029 2.03246 10.6768 1.8469 10.9788 1.72023C11.2809 1.59356 11.6052 1.52832 11.9327 1.52832C12.2603 1.52832 12.5846 1.59356 12.8867 1.72023C13.1887 1.8469 13.4626 2.03246 13.6921 2.26609C13.9217 2.49972 14.1025 2.77673 14.2239 3.08097C14.3453 3.38521 14.4048 3.71057 14.3991 4.03808V6.87608C14.4001 7.11808 14.3821 7.35983 14.3451 7.60133C14.3316 7.68908 14.3174 7.77758 14.3091 7.86533C14.2821 8.14283 14.3151 8.50583 14.5041 8.74958L14.0526 9.18458C15.2017 9.77313 16.1657 10.6678 16.8383 11.7697C17.5109 12.8717 17.8659 14.1381 17.8641 15.4291C17.8641 16.1678 17.7501 16.8803 17.5394 17.5486L16.7924 22.4288H10.7159V22.4266C6.96363 22.3456 3.95312 19.8991 3.95312 15.4291C3.95312 12.8018 5.21088 10.6868 7.11438 9.49433L7.10913 9.49058C7.23888 9.40058 7.39188 9.30908 7.55612 9.21083L7.55688 9.21008C8.09688 8.88683 8.75688 8.49083 9.10413 7.84433C9.40637 7.28333 9.46488 6.37358 9.46488 5.95208H9.46637V4.03808Z" fill="url(#paint4_radial_580_3522)"/>
<path d="M9.46637 4.03808C9.46066 3.71057 9.52024 3.38521 9.64162 3.08097C9.763 2.77673 9.94376 2.49972 10.1734 2.26609C10.4029 2.03246 10.6768 1.8469 10.9788 1.72023C11.2809 1.59356 11.6052 1.52832 11.9327 1.52832C12.2603 1.52832 12.5846 1.59356 12.8867 1.72023C13.1887 1.8469 13.4626 2.03246 13.6921 2.26609C13.9217 2.49972 14.1025 2.77673 14.2239 3.08097C14.3453 3.38521 14.4048 3.71057 14.3991 4.03808V6.87608C14.4001 7.11808 14.3821 7.35983 14.3451 7.60133C14.3316 7.68908 14.3174 7.77758 14.3091 7.86533C14.2821 8.14283 14.3151 8.50583 14.5041 8.74958L14.0526 9.18458C15.2017 9.77313 16.1657 10.6678 16.8383 11.7697C17.5109 12.8717 17.8659 14.1381 17.8641 15.4291C17.8641 16.1678 17.7501 16.8803 17.5394 17.5486L16.7924 22.4288H10.7159V22.4266C6.96363 22.3456 3.95312 19.8991 3.95312 15.4291C3.95312 12.8018 5.21088 10.6868 7.11438 9.49433L7.10913 9.49058C7.23888 9.40058 7.39188 9.30908 7.55612 9.21083L7.55688 9.21008C8.09688 8.88683 8.75688 8.49083 9.10413 7.84433C9.40637 7.28333 9.46488 6.37358 9.46488 5.95208H9.46637V4.03808Z" fill="url(#paint5_radial_580_3522)"/>
<path d="M9.46637 4.03808C9.46066 3.71057 9.52024 3.38521 9.64162 3.08097C9.763 2.77673 9.94376 2.49972 10.1734 2.26609C10.4029 2.03246 10.6768 1.8469 10.9788 1.72023C11.2809 1.59356 11.6052 1.52832 11.9327 1.52832C12.2603 1.52832 12.5846 1.59356 12.8867 1.72023C13.1887 1.8469 13.4626 2.03246 13.6921 2.26609C13.9217 2.49972 14.1025 2.77673 14.2239 3.08097C14.3453 3.38521 14.4048 3.71057 14.3991 4.03808V6.87608C14.4001 7.11808 14.3821 7.35983 14.3451 7.60133C14.3316 7.68908 14.3174 7.77758 14.3091 7.86533C14.2821 8.14283 14.3151 8.50583 14.5041 8.74958L14.0526 9.18458C15.2017 9.77313 16.1657 10.6678 16.8383 11.7697C17.5109 12.8717 17.8659 14.1381 17.8641 15.4291C17.8641 16.1678 17.7501 16.8803 17.5394 17.5486L16.7924 22.4288H10.7159V22.4266C6.96363 22.3456 3.95312 19.8991 3.95312 15.4291C3.95312 12.8018 5.21088 10.6868 7.11438 9.49433L7.10913 9.49058C7.23888 9.40058 7.39188 9.30908 7.55612 9.21083L7.55688 9.21008C8.09688 8.88683 8.75688 8.49083 9.10413 7.84433C9.40637 7.28333 9.46488 6.37358 9.46488 5.95208H9.46637V4.03808Z" fill="url(#paint6_radial_580_3522)"/>
<path d="M9.46637 4.03808C9.46066 3.71057 9.52024 3.38521 9.64162 3.08097C9.763 2.77673 9.94376 2.49972 10.1734 2.26609C10.4029 2.03246 10.6768 1.8469 10.9788 1.72023C11.2809 1.59356 11.6052 1.52832 11.9327 1.52832C12.2603 1.52832 12.5846 1.59356 12.8867 1.72023C13.1887 1.8469 13.4626 2.03246 13.6921 2.26609C13.9217 2.49972 14.1025 2.77673 14.2239 3.08097C14.3453 3.38521 14.4048 3.71057 14.3991 4.03808V6.87608C14.4001 7.11808 14.3821 7.35983 14.3451 7.60133C14.3316 7.68908 14.3174 7.77758 14.3091 7.86533C14.2821 8.14283 14.3151 8.50583 14.5041 8.74958L14.0526 9.18458C15.2017 9.77313 16.1657 10.6678 16.8383 11.7697C17.5109 12.8717 17.8659 14.1381 17.8641 15.4291C17.8641 16.1678 17.7501 16.8803 17.5394 17.5486L16.7924 22.4288H10.7159V22.4266C6.96363 22.3456 3.95312 19.8991 3.95312 15.4291C3.95312 12.8018 5.21088 10.6868 7.11438 9.49433L7.10913 9.49058C7.23888 9.40058 7.39188 9.30908 7.55612 9.21083L7.55688 9.21008C8.09688 8.88683 8.75688 8.49083 9.10413 7.84433C9.40637 7.28333 9.46488 6.37358 9.46488 5.95208H9.46637V4.03808Z" fill="url(#paint7_linear_580_3522)"/>
<g filter="url(#filter1_f_580_3522)">
<path d="M18.025 11.2011C18.0252 10.9497 17.9758 10.7007 17.8797 10.4684C17.7836 10.2361 17.6426 10.025 17.4648 9.84727C17.2871 9.6695 17.076 9.52852 16.8437 9.4324C16.6114 9.33629 16.3624 9.28691 16.111 9.28711H13.9915C13.5987 9.28728 13.2154 9.40832 12.8937 9.6338C12.5721 9.85927 12.3276 10.1783 12.1934 10.5475C12.0593 10.9167 12.042 11.3182 12.1439 11.6976C12.2458 12.077 12.4619 12.4158 12.763 12.6681C12.5332 12.8412 12.3452 13.0638 12.2131 13.3194C12.081 13.5751 12.0081 13.8571 11.9998 14.1447C11.9915 14.4324 12.0481 14.7182 12.1653 14.981C12.2824 15.2437 12.4573 15.4768 12.6767 15.6629C12.4647 15.8424 12.2944 16.066 12.1776 16.318C12.0607 16.5701 12.0002 16.8446 12.0002 17.1224V17.2169C12.0002 17.7419 12.211 18.2166 12.553 18.5624C12.2906 18.822 12.1113 19.1537 12.0378 19.5155C11.9644 19.8772 12.0001 20.2526 12.1404 20.5941C12.2807 20.9355 12.5193 21.2275 12.826 21.433C13.1326 21.6385 13.4934 21.7483 13.8625 21.7484H15.9655C16.2927 21.7484 16.6142 21.6622 16.8975 21.4985C17.1809 21.3347 17.416 21.0992 17.5794 20.8156C17.7427 20.5321 17.8284 20.2105 17.8279 19.8832C17.8274 19.556 17.7407 19.2347 17.5765 18.9516C17.9069 18.7978 18.1865 18.5529 18.3823 18.2455C18.5782 17.9382 18.6822 17.5813 18.682 17.2169V17.1224C18.682 16.5299 18.412 16.0011 17.9905 15.6501C18.2317 15.4407 18.4169 15.1744 18.5292 14.8753C18.6416 14.5763 18.6775 14.2539 18.6338 13.9375C18.5901 13.621 18.4681 13.3205 18.2789 13.0631C18.0897 12.8057 17.8392 12.5995 17.5502 12.4634C17.8457 12.1259 18.025 11.6841 18.025 11.2004" fill="url(#paint8_linear_580_3522)"/>
</g>
<g filter="url(#filter2_i_580_3522)">
<path d="M17.5509 12.5818C18.7563 12.5818 19.7334 11.6047 19.7334 10.3993C19.7334 9.19394 18.7563 8.2168 17.5509 8.2168H15.1336C13.9283 8.2168 12.9511 9.19394 12.9511 10.3993C12.9511 11.6047 13.9283 12.5818 15.1336 12.5818H17.5509Z" fill="url(#paint9_linear_580_3522)"/>
<path d="M17.5509 12.5818C18.7563 12.5818 19.7334 11.6047 19.7334 10.3993C19.7334 9.19394 18.7563 8.2168 17.5509 8.2168H15.1336C13.9283 8.2168 12.9511 9.19394 12.9511 10.3993C12.9511 11.6047 13.9283 12.5818 15.1336 12.5818H17.5509Z" fill="url(#paint10_radial_580_3522)"/>
<path d="M17.5509 12.5818C18.7563 12.5818 19.7334 11.6047 19.7334 10.3993C19.7334 9.19394 18.7563 8.2168 17.5509 8.2168H15.1336C13.9283 8.2168 12.9511 9.19394 12.9511 10.3993C12.9511 11.6047 13.9283 12.5818 15.1336 12.5818H17.5509Z" fill="url(#paint11_radial_580_3522)"/>
</g>
<g filter="url(#filter3_f_580_3522)">
<path d="M18.0657 9.28711H15.3507C14.8296 9.28711 14.4072 9.70953 14.4072 10.2306C14.4072 10.7517 14.8296 11.1741 15.3507 11.1741H18.0657C18.5868 11.1741 19.0092 10.7517 19.0092 10.2306C19.0092 9.70953 18.5868 9.28711 18.0657 9.28711Z" fill="url(#paint12_linear_580_3522)"/>
</g>
<g filter="url(#filter4_i_580_3522)">
<path d="M17.3828 22.4296C18.5559 22.4296 19.5068 21.4787 19.5068 20.3056C19.5068 19.1326 18.5559 18.1816 17.3828 18.1816H14.9851C13.812 18.1816 12.8611 19.1326 12.8611 20.3056C12.8611 21.4787 13.812 22.4296 14.9851 22.4296H17.3828Z" fill="url(#paint13_linear_580_3522)"/>
<path d="M17.3828 22.4296C18.5559 22.4296 19.5068 21.4787 19.5068 20.3056C19.5068 19.1326 18.5559 18.1816 17.3828 18.1816H14.9851C13.812 18.1816 12.8611 19.1326 12.8611 20.3056C12.8611 21.4787 13.812 22.4296 14.9851 22.4296H17.3828Z" fill="url(#paint14_radial_580_3522)"/>
<path d="M17.3828 22.4296C18.5559 22.4296 19.5068 21.4787 19.5068 20.3056C19.5068 19.1326 18.5559 18.1816 17.3828 18.1816H14.9851C13.812 18.1816 12.8611 19.1326 12.8611 20.3056C12.8611 21.4787 13.812 22.4296 14.9851 22.4296H17.3828Z" fill="url(#paint15_radial_580_3522)"/>
</g>
<g filter="url(#filter5_f_580_3522)">
<path d="M18.4554 19.4434H15.5349C15.2293 19.4434 14.9814 19.6912 14.9814 19.9969C14.9814 20.3025 15.2293 20.5504 15.5349 20.5504H18.4554C18.7611 20.5504 19.0089 20.3025 19.0089 19.9969C19.0089 19.6912 18.7611 19.4434 18.4554 19.4434Z" fill="url(#paint16_linear_580_3522)"/>
</g>
<g filter="url(#filter6_i_580_3522)">
<path d="M20.4814 17.2602V17.1522C20.4814 15.9469 19.5043 14.9697 18.2989 14.9697H15.0447C13.8393 14.9697 12.8622 15.9469 12.8622 17.1522V17.2602C12.8622 18.4656 13.8393 19.4427 15.0447 19.4427H18.2989C19.5043 19.4427 20.4814 18.4656 20.4814 17.2602Z" fill="url(#paint17_linear_580_3522)"/>
<path d="M20.4814 17.2602V17.1522C20.4814 15.9469 19.5043 14.9697 18.2989 14.9697H15.0447C13.8393 14.9697 12.8622 15.9469 12.8622 17.1522V17.2602C12.8622 18.4656 13.8393 19.4427 15.0447 19.4427H18.2989C19.5043 19.4427 20.4814 18.4656 20.4814 17.2602Z" fill="url(#paint18_radial_580_3522)"/>
<path d="M20.4814 17.2602V17.1522C20.4814 15.9469 19.5043 14.9697 18.2989 14.9697H15.0447C13.8393 14.9697 12.8622 15.9469 12.8622 17.1522V17.2602C12.8622 18.4656 13.8393 19.4427 15.0447 19.4427H18.2989C19.5043 19.4427 20.4814 18.4656 20.4814 17.2602Z" fill="url(#paint19_radial_580_3522)"/>
</g>
<g filter="url(#filter7_f_580_3522)">
<path d="M19.1797 16.541H15.243C14.9373 16.541 14.6895 16.7888 14.6895 17.0945C14.6895 17.4002 14.9373 17.648 15.243 17.648H19.1797C19.4854 17.648 19.7332 17.4002 19.7332 17.0945C19.7332 16.7888 19.4854 16.541 19.1797 16.541Z" fill="url(#paint20_linear_580_3522)"/>
</g>
<g filter="url(#filter8_i_580_3522)">
<path d="M20.4473 13.8251V13.8153C20.4473 12.61 19.4701 11.6328 18.2648 11.6328H15.0443C13.8389 11.6328 12.8618 12.61 12.8618 13.8153V13.8251C12.8618 15.0304 13.8389 16.0076 15.0443 16.0076H18.2648C19.4701 16.0076 20.4473 15.0304 20.4473 13.8251Z" fill="url(#paint21_linear_580_3522)"/>
<path d="M20.4473 13.8251V13.8153C20.4473 12.61 19.4701 11.6328 18.2648 11.6328H15.0443C13.8389 11.6328 12.8618 12.61 12.8618 13.8153V13.8251C12.8618 15.0304 13.8389 16.0076 15.0443 16.0076H18.2648C19.4701 16.0076 20.4473 15.0304 20.4473 13.8251Z" fill="url(#paint22_radial_580_3522)"/>
</g>
<g filter="url(#filter9_f_580_3522)">
<path d="M18.79 12.5518H15.298C14.7769 12.5518 14.3545 12.9742 14.3545 13.4953C14.3545 14.0163 14.7769 14.4388 15.298 14.4388H18.79C19.3111 14.4388 19.7335 14.0163 19.7335 13.4953C19.7335 12.9742 19.3111 12.5518 18.79 12.5518Z" fill="url(#paint23_linear_580_3522)"/>
</g>
<path d="M11.9414 1.57129C11.2873 1.57149 10.6599 1.83144 10.1974 2.294C9.73482 2.75657 9.47486 3.38388 9.47466 4.03804V5.95204H9.47316C9.47316 6.37354 9.41466 7.28329 9.11316 7.84429C8.76516 8.49079 8.10516 8.88679 7.56591 9.20929C7.40091 9.30829 7.24791 9.40054 7.11816 9.49054C7.86441 10.0883 9.39216 11.283 9.42966 11.2545C9.46716 11.226 11.1877 10.3133 12.0427 9.85954L12.0067 9.34204C12.6492 9.32465 13.2596 9.05723 13.7079 8.59668C14.1563 8.13613 14.4073 7.5188 14.4074 6.87604V4.03804C14.4072 3.38401 14.1474 2.75681 13.685 2.29427C13.2226 1.83173 12.5954 1.57169 11.9414 1.57129Z" fill="url(#paint24_radial_580_3522)"/>
<g filter="url(#filter10_f_580_3522)">
<path d="M13.7775 3.39266C13.7775 2.90181 13.3796 2.50391 12.8887 2.50391C12.3979 2.50391 12 2.90181 12 3.39266V7.61291C12 8.10375 12.3979 8.50166 12.8887 8.50166C13.3796 8.50166 13.7775 8.10375 13.7775 7.61291V3.39266Z" fill="url(#paint25_linear_580_3522)"/>
</g>
<defs>
<filter id="filter0_i_580_3522" x="3.95312" y="1.52832" width="14.2861" height="20.9004" filterUnits="userSpaceOnUse" color-interpolation-filters="sRGB">
<feFlood flood-opacity="0" result="BackgroundImageFix"/>
<feBlend mode="normal" in="SourceGraphic" in2="BackgroundImageFix" result="shape"/>
<feColorMatrix in="SourceAlpha" type="matrix" values="0 0 0 0 0 0 0 0 0 0 0 0 0 0 0 0 0 0 127 0" result="hardAlpha"/>
<feOffset dx="0.375"/>
<feGaussianBlur stdDeviation="1.125"/>
<feComposite in2="hardAlpha" operator="arithmetic" k2="-1" k3="1"/>
<feColorMatrix type="matrix" values="0 0 0 0 0.87451 0 0 0 0 0.67451 0 0 0 0 0.568627 0 0 0 1 0"/>
<feBlend mode="normal" in2="shape" result="effect1_innerShadow_580_3522"/>
</filter>
<filter id="filter1_f_580_3522" x="10.499" y="7.78711" width="9.68262" height="15.4609" filterUnits="userSpaceOnUse" color-interpolation-filters="sRGB">
<feFlood flood-opacity="0" result="BackgroundImageFix"/>
<feBlend mode="normal" in="SourceGraphic" in2="BackgroundImageFix" result="shape"/>
<feGaussianBlur stdDeviation="0.75" result="effect1_foregroundBlur_580_3522"/>
</filter>
<filter id="filter2_i_580_3522" x="12.9512" y="8.2168" width="7.15723" height="4.36523" filterUnits="userSpaceOnUse" color-interpolation-filters="sRGB">
<feFlood flood-opacity="0" result="BackgroundImageFix"/>
<feBlend mode="normal" in="SourceGraphic" in2="BackgroundImageFix" result="shape"/>
<feColorMatrix in="SourceAlpha" type="matrix" values="0 0 0 0 0 0 0 0 0 0 0 0 0 0 0 0 0 0 127 0" result="hardAlpha"/>
<feOffset dx="0.375"/>
<feGaussianBlur stdDeviation="0.5625"/>
<feComposite in2="hardAlpha" operator="arithmetic" k2="-1" k3="1"/>
<feColorMatrix type="matrix" values="0 0 0 0 0.898039 0 0 0 0 0.690196 0 0 0 0 0.568627 0 0 0 1 0"/>
<feBlend mode="normal" in2="shape" result="effect1_innerShadow_580_3522"/>
</filter>
<filter id="filter3_f_580_3522" x="13.4697" y="8.34961" width="6.47656" height="3.76172" filterUnits="userSpaceOnUse" color-interpolation-filters="sRGB">
<feFlood flood-opacity="0" result="BackgroundImageFix"/>
<feBlend mode="normal" in="SourceGraphic" in2="BackgroundImageFix" result="shape"/>
<feGaussianBlur stdDeviation="0.46875" result="effect1_foregroundBlur_580_3522"/>
</filter>
<filter id="filter4_i_580_3522" x="12.8613" y="18.1816" width="7.02051" height="4.62305" filterUnits="userSpaceOnUse" color-interpolation-filters="sRGB">
<feFlood flood-opacity="0" result="BackgroundImageFix"/>
<feBlend mode="normal" in="SourceGraphic" in2="BackgroundImageFix" result="shape"/>
<feColorMatrix in="SourceAlpha" type="matrix" values="0 0 0 0 0 0 0 0 0 0 0 0 0 0 0 0 0 0 127 0" result="hardAlpha"/>
<feOffset dx="0.375" dy="0.375"/>
<feGaussianBlur stdDeviation="0.5625"/>
<feComposite in2="hardAlpha" operator="arithmetic" k2="-1" k3="1"/>
<feColorMatrix type="matrix" values="0 0 0 0 0.811765 0 0 0 0 0.568627 0 0 0 0 0.541176 0 0 0 1 0"/>
<feBlend mode="normal" in2="shape" result="effect1_innerShadow_580_3522"/>
</filter>
<filter id="filter5_f_580_3522" x="14.0439" y="18.5059" width="5.90234" height="2.98242" filterUnits="userSpaceOnUse" color-interpolation-filters="sRGB">
<feFlood flood-opacity="0" result="BackgroundImageFix"/>
<feBlend mode="normal" in="SourceGraphic" in2="BackgroundImageFix" result="shape"/>
<feGaussianBlur stdDeviation="0.46875" result="effect1_foregroundBlur_580_3522"/>
</filter>
<filter id="filter6_i_580_3522" x="12.8623" y="14.9697" width="8.36914" height="4.84766" filterUnits="userSpaceOnUse" color-interpolation-filters="sRGB">
<feFlood flood-opacity="0" result="BackgroundImageFix"/>
<feBlend mode="normal" in="SourceGraphic" in2="BackgroundImageFix" result="shape"/>
<feColorMatrix in="SourceAlpha" type="matrix" values="0 0 0 0 0 0 0 0 0 0 0 0 0 0 0 0 0 0 127 0" result="hardAlpha"/>
<feOffset dx="0.75" dy="0.375"/>
<feGaussianBlur stdDeviation="0.5625"/>
<feComposite in2="hardAlpha" operator="arithmetic" k2="-1" k3="1"/>
<feColorMatrix type="matrix" values="0 0 0 0 0.831373 0 0 0 0 0.576471 0 0 0 0 0.505882 0 0 0 1 0"/>
<feBlend mode="normal" in2="shape" result="effect1_innerShadow_580_3522"/>
</filter>
<filter id="filter7_f_580_3522" x="13.752" y="15.6035" width="6.91895" height="2.98242" filterUnits="userSpaceOnUse" color-interpolation-filters="sRGB">
<feFlood flood-opacity="0" result="BackgroundImageFix"/>
<feBlend mode="normal" in="SourceGraphic" in2="BackgroundImageFix" result="shape"/>
<feGaussianBlur stdDeviation="0.46875" result="effect1_foregroundBlur_580_3522"/>
</filter>
<filter id="filter8_i_580_3522" x="12.8613" y="11.6328" width="7.96094" height="4.75" filterUnits="userSpaceOnUse" color-interpolation-filters="sRGB">
<feFlood flood-opacity="0" result="BackgroundImageFix"/>
<feBlend mode="normal" in="SourceGraphic" in2="BackgroundImageFix" result="shape"/>
<feColorMatrix in="SourceAlpha" type="matrix" values="0 0 0 0 0 0 0 0 0 0 0 0 0 0 0 0 0 0 127 0" result="hardAlpha"/>
<feOffset dx="0.375" dy="0.375"/>
<feGaussianBlur stdDeviation="0.5625"/>
<feComposite in2="hardAlpha" operator="arithmetic" k2="-1" k3="1"/>
<feColorMatrix type="matrix" values="0 0 0 0 0.862745 0 0 0 0 0.658824 0 0 0 0 0.54902 0 0 0 1 0"/>
<feBlend mode="normal" in2="shape" result="effect1_innerShadow_580_3522"/>
</filter>
<filter id="filter9_f_580_3522" x="13.417" y="11.6143" width="7.25391" height="3.76172" filterUnits="userSpaceOnUse" color-interpolation-filters="sRGB">
<feFlood flood-opacity="0" result="BackgroundImageFix"/>
<feBlend mode="normal" in="SourceGraphic" in2="BackgroundImageFix" result="shape"/>
<feGaussianBlur stdDeviation="0.46875" result="effect1_foregroundBlur_580_3522"/>
</filter>
<filter id="filter10_f_580_3522" x="11.0625" y="1.56641" width="3.65234" height="7.87305" filterUnits="userSpaceOnUse" color-interpolation-filters="sRGB">
<feFlood flood-opacity="0" result="BackgroundImageFix"/>
<feBlend mode="normal" in="SourceGraphic" in2="BackgroundImageFix" result="shape"/>
<feGaussianBlur stdDeviation="0.46875" result="effect1_foregroundBlur_580_3522"/>
</filter>
<linearGradient id="paint0_linear_580_3522" x1="15.0606" y1="9.04433" x2="6.54362" y2="25.2976" gradientUnits="userSpaceOnUse">
<stop stop-color="#FFDDBE"/>
<stop offset="1" stop-color="#E7AFA8"/>
</linearGradient>
<radialGradient id="paint1_radial_580_3522" cx="0" cy="0" r="1" gradientUnits="userSpaceOnUse" gradientTransform="translate(13.8812 2.63986) rotate(138.814) scale(2.77955 2.16871)">
<stop stop-color="#FFE6C7"/>
<stop offset="1" stop-color="#FFE6C7" stop-opacity="0"/>
</radialGradient>
<radialGradient id="paint2_radial_580_3522" cx="0" cy="0" r="1" gradientUnits="userSpaceOnUse" gradientTransform="translate(8.06043 11.9998) rotate(133.564) scale(5.55916 4.02714)">
<stop stop-color="#F2C0A5"/>
<stop offset="1" stop-color="#F2C0A5" stop-opacity="0"/>
</radialGradient>
<radialGradient id="paint3_radial_580_3522" cx="0" cy="0" r="1" gradientUnits="userSpaceOnUse" gradientTransform="translate(15.2204 12.6676) rotate(135.794) scale(8.0169 4.94222)">
<stop stop-color="#DDA895"/>
<stop offset="1" stop-color="#DDA895" stop-opacity="0"/>
</radialGradient>
<radialGradient id="paint4_radial_580_3522" cx="0" cy="0" r="1" gradientUnits="userSpaceOnUse" gradientTransform="translate(8.15612 25.5001) rotate(-62.612) scale(11.0566 19.6586)">
<stop stop-color="#C08494"/>
<stop offset="1" stop-color="#C08494" stop-opacity="0"/>
</radialGradient>
<radialGradient id="paint5_radial_580_3522" cx="0" cy="0" r="1" gradientUnits="userSpaceOnUse" gradientTransform="translate(15.4409 15.6518) rotate(180) scale(11.6505 17.9306)">
<stop offset="0.864" stop-color="#EDB29B" stop-opacity="0"/>
<stop offset="1" stop-color="#EDB29B"/>
</radialGradient>
<radialGradient id="paint6_radial_580_3522" cx="0" cy="0" r="1" gradientUnits="userSpaceOnUse" gradientTransform="translate(14.0399 8.53658) rotate(38.8999) scale(1.1717 1.54303)">
<stop stop-color="#FFDBBA"/>
<stop offset="1" stop-color="#FFDBBA" stop-opacity="0"/>
</radialGradient>
<linearGradient id="paint7_linear_580_3522" x1="10.9086" y1="23.3438" x2="10.9086" y2="20.7661" gradientUnits="userSpaceOnUse">
<stop stop-color="#B57895"/>
<stop offset="1" stop-color="#B57895" stop-opacity="0"/>
</linearGradient>
<linearGradient id="paint8_linear_580_3522" x1="14.815" y1="10.6731" x2="14.815" y2="22.1991" gradientUnits="userSpaceOnUse">
<stop stop-color="#B5755F"/>
<stop offset="1" stop-color="#B3748D"/>
</linearGradient>
<linearGradient id="paint9_linear_580_3522" x1="19.7334" y1="10.3993" x2="13.6246" y2="10.3993" gradientUnits="userSpaceOnUse">
<stop stop-color="#FFD8BA"/>
<stop offset="1" stop-color="#ECB9A3"/>
</linearGradient>
<radialGradient id="paint10_radial_580_3522" cx="0" cy="0" r="1" gradientUnits="userSpaceOnUse" gradientTransform="translate(13.5676 11.711) scale(4.96949 1.99325)">
<stop stop-color="#DFA995"/>
<stop offset="1" stop-color="#DFA995" stop-opacity="0"/>
</radialGradient>
<radialGradient id="paint11_radial_580_3522" cx="0" cy="0" r="1" gradientUnits="userSpaceOnUse" gradientTransform="translate(14.0536 12.3335) rotate(-142.633) scale(1.74083 1.16526)">
<stop stop-color="#CA8C6F"/>
<stop offset="1" stop-color="#CA8C6F" stop-opacity="0"/>
</radialGradient>
<linearGradient id="paint12_linear_580_3522" x1="18.77" y1="9.80386" x2="13.8095" y2="9.80386" gradientUnits="userSpaceOnUse">
<stop stop-color="#FFE7CA"/>
<stop offset="1" stop-color="#FFE7CA" stop-opacity="0"/>
</linearGradient>
<linearGradient id="paint13_linear_580_3522" x1="18.9248" y1="20.3056" x2="12.8611" y2="20.3056" gradientUnits="userSpaceOnUse">
<stop stop-color="#FECEB7"/>
<stop offset="1" stop-color="#DAA59E"/>
</linearGradient>
<radialGradient id="paint14_radial_580_3522" cx="0" cy="0" r="1" gradientUnits="userSpaceOnUse" gradientTransform="translate(14.7751 22.4289) scale(6.15575 1.16705)">
<stop stop-color="#BF8196"/>
<stop offset="1" stop-color="#BF8196" stop-opacity="0"/>
</radialGradient>
<radialGradient id="paint15_radial_580_3522" cx="0" cy="0" r="1" gradientUnits="userSpaceOnUse" gradientTransform="translate(14.4601 18.9271) scale(5.04727 1.13481)">
<stop stop-color="#B57767"/>
<stop offset="1" stop-color="#B57767" stop-opacity="0"/>
</radialGradient>
<linearGradient id="paint16_linear_580_3522" x1="18.7997" y1="19.7471" x2="14.4579" y2="19.7471" gradientUnits="userSpaceOnUse">
<stop stop-color="#FFD2C1"/>
<stop offset="1" stop-color="#FFD2C1" stop-opacity="0"/>
</linearGradient>
<linearGradient id="paint17_linear_580_3522" x1="19.8139" y1="17.2062" x2="12.8622" y2="17.2062" gradientUnits="userSpaceOnUse">
<stop stop-color="#FFDDC1"/>
<stop offset="1" stop-color="#E5B1A3"/>
</linearGradient>
<radialGradient id="paint18_radial_580_3522" cx="0" cy="0" r="1" gradientUnits="userSpaceOnUse" gradientTransform="translate(14.4057 19.4427) scale(6.91262 2.45907)">
<stop offset="0.14" stop-color="#CA8E96"/>
<stop offset="1" stop-color="#CA8E96" stop-opacity="0"/>
</radialGradient>
<radialGradient id="paint19_radial_580_3522" cx="0" cy="0" r="1" gradientUnits="userSpaceOnUse" gradientTransform="translate(15.0214 15.3605) scale(3.56497 1.44716)">
<stop stop-color="#BB7E6C"/>
<stop offset="1" stop-color="#BB7E6C" stop-opacity="0"/>
</radialGradient>
<linearGradient id="paint20_linear_580_3522" x1="19.4715" y1="16.8448" x2="14.0347" y2="16.8448" gradientUnits="userSpaceOnUse">
<stop stop-color="#FFE2C9"/>
<stop offset="1" stop-color="#FFE2C9" stop-opacity="0"/>
</linearGradient>
<linearGradient id="paint21_linear_580_3522" x1="20.4473" y1="13.8198" x2="12.8625" y2="13.8198" gradientUnits="userSpaceOnUse">
<stop stop-color="#FFDFBF"/>
<stop offset="1" stop-color="#E2AE9C"/>
</linearGradient>
<radialGradient id="paint22_radial_580_3522" cx="0" cy="0" r="1" gradientUnits="userSpaceOnUse" gradientTransform="translate(14.7885 16.0076) scale(6.07031 2.81764)">
<stop stop-color="#D39797"/>
<stop offset="1" stop-color="#D39797" stop-opacity="0"/>
</radialGradient>
<linearGradient id="paint23_linear_580_3522" x1="19.4545" y1="13.0693" x2="13.6562" y2="13.0693" gradientUnits="userSpaceOnUse">
<stop stop-color="#FFE8CA"/>
<stop offset="1" stop-color="#FFE8CA" stop-opacity="0"/>
</linearGradient>
<radialGradient id="paint24_radial_580_3522" cx="0" cy="0" r="1" gradientUnits="userSpaceOnUse" gradientTransform="translate(9.52941 4.62529) rotate(90) scale(4.74671 1.87338)">
<stop stop-color="#E0A892"/>
<stop offset="1" stop-color="#E0A892" stop-opacity="0"/>
</radialGradient>
<linearGradient id="paint25_linear_580_3522" x1="13.6853" y1="4.14866" x2="11.769" y2="4.14866" gradientUnits="userSpaceOnUse">
<stop stop-color="#FFE7CA"/>
<stop offset="1" stop-color="#FFE7CA" stop-opacity="0"/>
</linearGradient>
</defs>
</svg>
