<svg width="26" height="26" viewBox="0 0 26 26" fill="none" xmlns="http://www.w3.org/2000/svg">
<path d="M13.0004 3.25C11.3088 3.24943 9.64622 3.68895 8.17594 4.52538C6.70567 5.3618 5.47829 6.56636 4.61442 8.02068C3.75055 9.475 3.2799 11.129 3.24873 12.8203C3.21755 14.5116 3.62692 16.1818 4.4366 17.667L3.28285 21.7133C3.24226 21.8553 3.24117 22.0058 3.27972 22.1484C3.31828 22.2911 3.395 22.4205 3.50164 22.5228C3.60827 22.6251 3.74079 22.6964 3.88492 22.729C4.02905 22.7616 4.17933 22.7542 4.3196 22.7078L8.11885 21.4419C9.41375 22.1901 10.8634 22.6305 12.3557 22.7289C13.8481 22.8273 15.343 22.581 16.7249 22.0092C18.1068 21.4374 19.3387 20.5554 20.3252 19.4313C21.3117 18.3072 22.0264 16.9713 22.414 15.5269C22.8016 14.0824 22.8517 12.5682 22.5604 11.1012C22.2692 9.63433 21.6444 8.25407 20.7343 7.06726C19.8243 5.88044 18.6535 4.91888 17.3124 4.25696C15.9713 3.59504 14.4959 3.2505 13.0004 3.25Z" fill="#F87171"/>
<path d="M9.75 11.375C9.75 11.1595 9.8356 10.9528 9.98798 10.8005C10.1403 10.6481 10.347 10.5625 10.5625 10.5625H15.4375C15.653 10.5625 15.8597 10.6481 16.012 10.8005C16.1644 10.9528 16.25 11.1595 16.25 11.375C16.25 11.5905 16.1644 11.7972 16.012 11.9495C15.8597 12.1019 15.653 12.1875 15.4375 12.1875H10.5625C10.347 12.1875 10.1403 12.1019 9.98798 11.9495C9.8356 11.7972 9.75 11.5905 9.75 11.375ZM10.5625 13.8125H13.8125C14.028 13.8125 14.2347 13.8981 14.387 14.0505C14.5394 14.2028 14.625 14.4095 14.625 14.625C14.625 14.8405 14.5394 15.0472 14.387 15.1995C14.2347 15.3519 14.028 15.4375 13.8125 15.4375H10.5625C10.347 15.4375 10.1403 15.3519 9.98798 15.1995C9.8356 15.0472 9.75 14.8405 9.75 14.625C9.75 14.4095 9.8356 14.2028 9.98798 14.0505C10.1403 13.8981 10.347 13.8125 10.5625 13.8125Z" fill="white"/>
</svg>
