<svg width="22" height="22" viewBox="0 0 22 22" fill="none" xmlns="http://www.w3.org/2000/svg">
<g clip-path="url(#clip0_48_16102)">
<mask id="mask0_48_16102" style="mask-type:luminance" maskUnits="userSpaceOnUse" x="0" y="0" width="22" height="22">
<path d="M10.9997 20.1668C12.2037 20.1683 13.3961 19.9319 14.5085 19.4711C15.6208 19.0104 16.6311 18.3343 17.4814 17.4819C18.3339 16.6316 19.0099 15.6213 19.4706 14.5089C19.9314 13.3966 20.1678 12.2042 20.1663 11.0002C20.1678 9.79617 19.9314 8.60374 19.4706 7.49139C19.0099 6.37905 18.3339 5.36871 17.4814 4.51842C16.6311 3.66599 15.6208 2.98998 14.5085 2.52921C13.3961 2.06845 12.2037 1.83202 10.9997 1.8335C9.79568 1.83202 8.60325 2.06845 7.49091 2.52921C6.37856 2.98998 5.36822 3.66599 4.51793 4.51842C3.66551 5.36871 2.98949 6.37905 2.52873 7.49139C2.06796 8.60374 1.83153 9.79617 1.83301 11.0002C1.83153 12.2042 2.06796 13.3966 2.52873 14.5089C2.98949 15.6213 3.66551 16.6316 4.51793 17.4819C5.36822 18.3343 6.37856 19.0104 7.49091 19.4711C8.60325 19.9319 9.79568 20.1683 10.9997 20.1668Z" fill="white" stroke="white" stroke-width="2" stroke-linejoin="round"/>
<path d="M7.33301 11L10.083 13.75L15.583 8.25" stroke="black" stroke-width="2" stroke-linecap="round" stroke-linejoin="round"/>
</mask>
<g mask="url(#mask0_48_16102)">
<path d="M0 0H22V22H0V0Z" fill="#F87171"/>
</g>
</g>
<defs>
<clipPath id="clip0_48_16102">
<rect width="22" height="22" fill="white"/>
</clipPath>
</defs>
</svg>
