<svg width="16" height="17" viewBox="0 0 16 17" fill="none" xmlns="http://www.w3.org/2000/svg">
<path d="M8 0C6.01088 0 4.10322 0.790176 2.6967 2.1967C1.29018 3.60322 0.5 5.51088 0.5 7.5C0.5 9.432 1.564 11.3 2.768 12.816C3.988 14.353 5.446 15.645 6.423 16.438C7.349 17.188 8.651 17.188 9.577 16.438C10.554 15.645 12.012 14.353 13.232 12.816C14.436 11.301 15.5 9.432 15.5 7.5C15.5 5.51088 14.7098 3.60322 13.3033 2.1967C11.8968 0.790176 9.98912 0 8 0Z" fill="url(#paint0_linear_580_3039)"/>
<path d="M10.5 7.5C10.5 8.16304 10.2366 8.79893 9.76777 9.26777C9.29893 9.73661 8.66304 10 8 10C7.33696 10 6.70107 9.73661 6.23223 9.26777C5.76339 8.79893 5.5 8.16304 5.5 7.5C5.5 6.83696 5.76339 6.20107 6.23223 5.73223C6.70107 5.26339 7.33696 5 8 5C8.66304 5 9.29893 5.26339 9.76777 5.73223C10.2366 6.20107 10.5 6.83696 10.5 7.5Z" fill="url(#paint1_linear_580_3039)"/>
<defs>
<linearGradient id="paint0_linear_580_3039" x1="8" y1="0" x2="8" y2="17.0005" gradientUnits="userSpaceOnUse">
<stop stop-color="#F87171"/>
<stop offset="1" stop-color="#EF4444"/>
</linearGradient>
<linearGradient id="paint1_linear_580_3039" x1="5.79" y1="7.721" x2="8.394" y2="10.428" gradientUnits="userSpaceOnUse">
<stop stop-color="#FDFDFD"/>
<stop offset="1" stop-color="#FECBE6"/>
</linearGradient>
</defs>
</svg>
