<svg width="19" height="18" viewBox="0 0 19 18" fill="none" xmlns="http://www.w3.org/2000/svg">
<path d="M15.665 7.1625C15.3425 6.78 14.8775 6.5625 14.375 6.5625H11.3525V4.5C11.3525 3.36 10.43 2.4375 9.23 2.4375C8.705 2.4375 8.2325 2.7525 8.0225 3.24L6.1175 7.6875H4.715C3.7325 7.6875 2.9375 8.4825 2.9375 9.465V13.7925C2.9375 14.7675 3.74 15.5625 4.715 15.5625H13.385C14.2025 15.5625 14.9 14.9775 15.0425 14.1675L16.0325 8.5425C16.115 8.0475 15.98 7.545 15.6575 7.1625H15.665ZM4.715 14.4375C4.355 14.4375 4.0625 14.145 4.0625 13.7925V9.465C4.0625 9.105 4.355 8.8125 4.715 8.8125H5.9225V14.4375H4.715ZM13.94 13.9725C13.895 14.2425 13.6625 14.4375 13.385 14.4375H7.055V8.3625L9.0575 3.675C9.0875 3.6075 9.155 3.555 9.2975 3.555C9.815 3.555 10.2275 3.975 10.2275 4.4925V7.68H14.375C14.5475 7.68 14.6975 7.7475 14.8025 7.875C14.9075 8.0025 14.9525 8.1675 14.9225 8.34L13.9325 13.965L13.94 13.9725Z" fill="#F87171"/>
</svg>
